# xmcd
#
# Track frame offsets:
# 225
# 12883
# 25191
# 36794
# 49799
# 61531
# 74128
# 88675
# 99934
# 110329
# 120669
# 130479
# 144385
# 155784
# 166207
# 177327
# 188642
# 199734
# 212553
# 223645
#
# Disc length: 3148 seconds
#
#
# Revision: 1
# Processed by: cddbd v1.5.1PL0 Copyright (c) Steve Scherf et al.
# Submitted via: FreeRIP 2.90 
#
DISCID=1a0c4914
DTITLE=Patsy Cline - 20 Golden Hits
DYEAR=1900
DGENRE=Country
TTITLE0=I Fall To Pieces
TTITLE1=Crazy
TTITLE2=Walkin' After Midnight
TTITLE3=Life's Railway To Heaven
TTITLE4=In Care Of The Blues
TTITLE5=Fingerprints
TTITLE6=Then You'll Know
TTITLE7=Hidin' Out
TTITLE8=Too Many Secrets
TTITLE9=Walkin' Dream
TTITLE10=I'm Blue Again
TTITLE11=A Curch, A Courtroom And Then Goodbye
TTITLE12=Crazy Dreams
TTITLE13=How Can I Face Tomorrow
TTITLE14=Stop The World
TTITLE15=Hungry For Love
TTITLE16=I Cried All The Way To The Altar
TTITLE17=Yes, I Understand
TTITLE18=I Can't Forget You
TTITLE19=Just A Closer Walk With Thee
EXTD=
EXTT0=
EXTT1=
EXTT2=
EXTT3=
EXTT4=
EXTT5=
EXTT6=
EXTT7=
EXTT8=
EXTT9=
EXTT10=
EXTT11=
EXTT12=
EXTT13=
EXTT14=
EXTT15=
EXTT16=
EXTT17=
EXTT18=
EXTT19=
PLAYORDER=
